<svg width="113" height="94" viewBox="0 0 113 94" fill="none" xmlns="http://www.w3.org/2000/svg">
<g filter="url(#filter0_b_2056_1429)">
<rect x="1.68164" y="1" width="109.553" height="91.3622" rx="6" fill="url(#paint0_linear_2056_1429)" fill-opacity="0.1"/>
<rect x="1.18164" y="0.5" width="110.553" height="92.3622" rx="6.5" stroke="url(#paint1_linear_2056_1429)"/>
</g>
<path fill-rule="evenodd" clip-rule="evenodd" d="M61.8084 44.9306C61.8084 44.9306 60.8647 43.698 60.2811 43.221C60.2811 43.221 58.4748 41.4526 58.1164 40.6113C58.1164 40.6113 57.4124 39.2099 57.8246 37.5821C57.8246 37.5821 57.9971 36.517 58.7411 36.517C58.7411 36.517 59.7097 36.6295 59.7097 38.311V40.6829H63.1807L63.1747 37.1896C63.1747 37.1896 63.4416 31.4689 59.0862 31.217C59.0862 31.217 55.6605 30.7413 54.678 34.6387C54.678 34.6387 54.2924 35.5082 54.2924 38.536V40.7238C54.2924 40.7238 54.2531 43.2479 54.8633 44.8743C54.8633 44.8743 55.2083 45.9407 56.0582 47.1171C56.0582 47.1171 57.7841 49.0798 58.8198 50.2038C58.8198 50.2038 59.8652 51.4645 59.7278 53.4707C59.7278 53.4707 59.6425 55.5306 58.6328 55.4462C58.6328 55.4462 57.7096 55.3593 57.7096 53.339V50.9684H54.011V54.4118C54.011 54.4118 53.9074 60.9969 58.66 60.9969C58.66 60.9969 63.2013 61.1913 63.4132 54.2392V51.4351C63.4126 51.4351 63.5736 47.1746 61.8084 44.9306V44.9306ZM44.0379 32.0366L42.8756 47.4214H42.6038L41.4936 32.1747H35.6956L35.4051 60.0354H38.838L38.8792 39.0436H39.1491L40.9688 60.0315H44.5803L46.3776 39.0513H46.6167L46.6996 60.0354H50.1507L49.779 32.0366H44.0379V32.0366ZM23.6027 32.153L21.3187 60.0034H25.0143L26.3673 38.4094H26.6712L28.0235 60.0034H31.7185L29.4352 32.153H23.6027V32.153ZM101.149 44.547V48.6553H102.097V53.0654C102.097 55.2212 101.224 55.2608 101.224 55.2608C100.164 55.2608 100.204 53.2124 100.204 53.2124V37.9581C100.204 36.3866 101.145 36.3022 101.145 36.3022C102.048 36.3022 102.054 38.1767 102.054 38.1767V40.4962H105.534C105.647 35.9685 105.22 34.8727 105.22 34.8727C104.357 30.7784 101.092 31.0022 101.092 31.0022C96.0739 31.0022 96.6308 39.1344 96.6308 39.1344V53.8837C96.7386 61.5109 101.683 60.7361 101.767 60.7297C103.966 60.2156 104.63 58.7388 104.63 58.7388C105.241 57.7798 105.399 56.4513 105.399 56.4513C105.574 55.6777 105.617 53.2124 105.617 53.2124V44.547H101.149V44.547ZM89.6149 49.0798H89.4636L85.9326 32.0443H81.7079V60.0379H85.1462L84.9404 43.0049H85.0942L88.7523 60.0379H92.8487V32.0417H89.3667L89.6149 49.0798V49.0798ZM73.3148 53.0628C73.3148 53.0628 73.3644 55.3606 72.3559 55.3606C72.3559 55.3606 71.2954 55.4808 71.2954 53.1204L71.2845 32.0609H67.5132V52.9529C67.5132 52.9529 67.1264 60.8601 72.4092 60.8601C72.4092 60.8601 77.0001 60.9752 77.0001 53.316V32.0622H73.3148V53.0628V53.0628ZM16.413 44.9306C16.413 44.9306 15.4705 43.698 14.8863 43.2223C14.8863 43.2223 13.0812 41.4552 12.7228 40.6126C12.7228 40.6126 12.0188 39.2086 12.4316 37.5847C12.4316 37.5847 12.6036 36.5196 13.3469 36.5196C13.3469 36.5196 14.3161 36.6308 14.3161 38.3122V40.6842H17.7883L17.7817 37.1896C17.7817 37.1896 18.0468 31.4689 13.6932 31.2183C13.6932 31.2183 13.3651 31.1735 12.8838 31.2247C12.8838 31.2247 10.2464 31.5239 9.30322 34.5798C9.29778 34.6029 9.28991 34.6195 9.28446 34.64C9.28446 34.64 8.89946 35.5082 8.89946 38.5373V40.7251C8.89946 40.7251 8.85951 43.2491 9.4703 44.8756C9.4703 44.8756 9.81535 45.942 10.6652 47.1184C10.6652 47.1184 12.3905 49.0811 13.4262 50.205C13.4262 50.205 14.4729 51.4632 14.3342 53.472C14.3342 53.472 14.2489 55.5319 13.2398 55.4475C13.2398 55.4475 12.3166 55.3606 12.3166 53.3403V50.9684H8.61737V54.4144C8.61737 54.4144 8.51385 60.9995 13.2664 60.9995C13.2664 60.9995 17.8065 61.1938 18.0202 54.2418V51.4402C18.0202 51.4377 18.1788 47.1746 16.413 44.9306V44.9306Z" fill="black"/>
<defs>
<filter id="filter0_b_2056_1429" x="-24.3184" y="-25" width="161.553" height="143.362" filterUnits="userSpaceOnUse" color-interpolation-filters="sRGB">
<feFlood flood-opacity="0" result="BackgroundImageFix"/>
<feGaussianBlur in="BackgroundImageFix" stdDeviation="12.5"/>
<feComposite in2="SourceAlpha" operator="in" result="effect1_backgroundBlur_2056_1429"/>
<feBlend mode="normal" in="SourceGraphic" in2="effect1_backgroundBlur_2056_1429" result="shape"/>
</filter>
<linearGradient id="paint0_linear_2056_1429" x1="-3.32981" y1="-6.28953" x2="93.3095" y2="126.273" gradientUnits="userSpaceOnUse">
<stop stop-color="white" stop-opacity="0.44"/>
<stop offset="1" stop-color="#8F8F8F" stop-opacity="0.21"/>
</linearGradient>
<linearGradient id="paint1_linear_2056_1429" x1="-8.86866" y1="-10.7764" x2="94.018" y2="127.863" gradientUnits="userSpaceOnUse">
<stop/>
<stop offset="0.505208" stop-color="#F0EEE0" stop-opacity="0.42"/>
<stop offset="1"/>
</linearGradient>
</defs>
</svg>
