<?xml version="1.0" encoding="UTF-8"?>
<svg version="1.1" xmlns="http://www.w3.org/2000/svg" width="797" height="364">
<path d="M0 0 C263.01 0 526.02 0 797 0 C797 120.12 797 240.24 797 364 C533.99 364 270.98 364 0 364 C0 243.88 0 123.76 0 0 Z " fill="#FDFDFD" transform="translate(0,0)"/>
<path d="M0 0 C68.64 0 137.28 0 208 0 C208.33 48.51 208.66 97.02 209 147 C210.32 145.35 211.64 143.7 213 142 C215.4453125 140.0859375 215.4453125 140.0859375 218.125 138.375 C218.99382812 137.80523437 219.86265625 137.23546875 220.7578125 136.6484375 C228.71932219 132.60053739 236.80279479 131.45443616 245.625 130.8125 C246.62917969 130.73064453 247.63335937 130.64878906 248.66796875 130.56445312 C251.11138701 130.3666526 253.55512122 130.17866669 256 130 C256.02213429 128.58340512 256.03778524 127.16670818 256.05078125 125.75 C256.06020752 124.96109375 256.06963379 124.1721875 256.0793457 123.359375 C255.96250627 119.88510953 255.28113433 117.23654989 254 114 C243.64673457 110.54891152 229.02422902 112.3086454 219 116 C218.29875 116.36351562 217.5975 116.72703125 216.875 117.1015625 C215 118 215 118 212 118 C212 112.72 212 107.44 212 102 C222.86538137 97.52601943 232.98343242 95.70757241 244.6875 95.5625 C245.64922119 95.54034424 246.61094238 95.51818848 247.60180664 95.49536133 C255.6162084 95.51941209 262.49183895 97.25448266 268.875 102.25 C273.51211532 108.25097277 276.08810836 114.26583445 276.17358398 121.87280273 C276.18707382 122.837379 276.20056366 123.80195526 276.21446228 124.79576111 C276.23011986 126.34898827 276.23011986 126.34898827 276.24609375 127.93359375 C276.27902493 130.13086347 276.3122367 132.32812899 276.34570312 134.52539062 C276.3931499 137.98605541 276.43760424 141.44670231 276.47680664 144.9074707 C276.51652982 148.2496883 276.56806512 151.59156449 276.62109375 154.93359375 C276.63371498 156.48378456 276.63371498 156.48378456 276.64659119 158.06529236 C276.66323318 159.03302078 276.67987518 160.00074921 276.69702148 160.99780273 C276.70732895 161.84511459 276.71763641 162.69242645 276.72825623 163.56541443 C277.03523663 166.31568925 277.87176709 168.48451177 279 171 C282.3 171.33 285.6 171.66 289 172 C289.33 176.29 289.66 180.58 290 185 C283.52069344 187.82733377 277.79073719 189.44756088 270.828125 187.34375 C265.5105749 185.02481838 263.00817856 181.88829016 260 177 C259.38253906 177.47050781 258.76507813 177.94101563 258.12890625 178.42578125 C247.50591339 186.23537874 239.25797215 188.02428294 226 187 C218.34928636 185.7638585 215.14394542 182.37595224 209 177 C208.67 194.16 208.34 211.32 208 229 C139.36 229 70.72 229 0 229 C0 153.43 0 77.86 0 0 Z " fill="#FDFDFD" transform="translate(101,50)"/>
<path d="M0 0 C68.64 0 137.28 0 208 0 C208.33 48.51 208.66 97.02 209 147 C210.32 145.35 211.64 143.7 213 142 C215.4453125 140.0859375 215.4453125 140.0859375 218.125 138.375 C218.99382812 137.80523437 219.86265625 137.23546875 220.7578125 136.6484375 C228.71932219 132.60053739 236.80279479 131.45443616 245.625 130.8125 C246.62917969 130.73064453 247.63335937 130.64878906 248.66796875 130.56445312 C251.11138701 130.3666526 253.55512122 130.17866669 256 130 C256.02213429 128.58340512 256.03778524 127.16670818 256.05078125 125.75 C256.06020752 124.96109375 256.06963379 124.1721875 256.0793457 123.359375 C255.96250627 119.88510953 255.28113433 117.23654989 254 114 C243.64673457 110.54891152 229.02422902 112.3086454 219 116 C218.29875 116.36351562 217.5975 116.72703125 216.875 117.1015625 C215 118 215 118 212 118 C212 112.72 212 107.44 212 102 C222.86538137 97.52601943 232.98343242 95.70757241 244.6875 95.5625 C245.64922119 95.54034424 246.61094238 95.51818848 247.60180664 95.49536133 C255.6162084 95.51941209 262.49183895 97.25448266 268.875 102.25 C273.51211532 108.25097277 276.08810836 114.26583445 276.17358398 121.87280273 C276.18707382 122.837379 276.20056366 123.80195526 276.21446228 124.79576111 C276.23011986 126.34898827 276.23011986 126.34898827 276.24609375 127.93359375 C276.27902493 130.13086347 276.3122367 132.32812899 276.34570312 134.52539062 C276.3931499 137.98605541 276.43760424 141.44670231 276.47680664 144.9074707 C276.51652982 148.2496883 276.56806512 151.59156449 276.62109375 154.93359375 C276.63371498 156.48378456 276.63371498 156.48378456 276.64659119 158.06529236 C276.66323318 159.03302078 276.67987518 160.00074921 276.69702148 160.99780273 C276.70732895 161.84511459 276.71763641 162.69242645 276.72825623 163.56541443 C277.03523663 166.31568925 277.87176709 168.48451177 279 171 C282.3 171.33 285.6 171.66 289 172 C289.33 176.29 289.66 180.58 290 185 C283.52069344 187.82733377 277.79073719 189.44756088 270.828125 187.34375 C265.5105749 185.02481838 263.00817856 181.88829016 260 177 C259.38253906 177.47050781 258.76507813 177.94101563 258.12890625 178.42578125 C247.50591339 186.23537874 239.25797215 188.02428294 226 187 C218.34928636 185.7638585 215.14394542 182.37595224 209 177 C208.67 194.16 208.34 211.32 208 229 C139.36 229 70.72 229 0 229 C0 153.43 0 77.86 0 0 Z M15 16 C14.90004591 18.51221214 14.86558684 20.99699455 14.87301636 23.50975037 C14.87145637 24.30548637 14.86989638 25.10122237 14.86828911 25.92107159 C14.86427583 28.60812538 14.86747003 31.29512344 14.87060547 33.98217773 C14.86925156 35.90023838 14.86747169 37.81829876 14.86529541 39.73635864 C14.8607195 44.96148013 14.86251136 50.18658197 14.8656745 55.41170382 C14.86819765 60.8680621 14.86586065 66.32441864 14.86428833 71.78077698 C14.86246635 80.94670922 14.86487353 90.11263343 14.86962891 99.27856445 C14.87506996 109.88891954 14.87331012 120.4992554 14.8678025 131.10961002 C14.86327025 140.20343072 14.86262142 149.29724562 14.86524117 158.39106709 C14.86680353 163.82934799 14.86699885 169.26761986 14.86370468 174.70590019 C14.8608244 179.81854149 14.86280458 184.93115793 14.86859894 190.04379654 C14.86992576 191.92481126 14.86953373 193.80582806 14.86733627 195.68684196 C14.86462169 198.24567861 14.86800974 200.80443455 14.87301636 203.36326599 C14.87078564 204.11549311 14.86855491 204.86772022 14.86625659 205.6427421 C14.81592206 209.44760459 14.81592206 209.44760459 16 213 C74.08 213 132.16 213 192 213 C192 147.66 192 82.32 192 15 C162.980625 14.979375 133.96125 14.95875 104.0625 14.9375 C94.8831665 14.928396 85.70383301 14.91929199 76.24633789 14.90991211 C68.05272693 14.90656868 68.05272693 14.90656868 59.8591156 14.90455627 C56.19582011 14.90362069 52.53253897 14.89985766 48.86924744 14.89442444 C44.20565909 14.88759856 39.54209179 14.88550265 34.87849891 14.88692772 C33.16123585 14.88662945 31.44397209 14.88462699 29.7267133 14.88078487 C27.41841338 14.8758577 25.11019671 14.87699276 22.80189514 14.87974548 C21.50493241 14.87882369 20.20796968 14.8779019 18.87170506 14.87695217 C16.10325804 14.67134597 16.10325804 14.67134597 15 16 Z " fill="#EF9749" transform="translate(101,50)"/>
<path d="M0 0 C5.94 0 11.88 0 18 0 C18 41.91 18 83.82 18 127 C11.73 127 5.46 127 -1 127 C-1.33 123.04 -1.66 119.08 -2 115 C-2.53367187 115.67546875 -3.06734375 116.3509375 -3.6171875 117.046875 C-9.52740871 124.12277997 -14.45101012 128.10652388 -23.69140625 129.3671875 C-32.44403829 129.79050114 -40.45825203 127.38706633 -47.3125 121.875 C-56.69775213 112.79746105 -59.93505745 101.52399675 -60.35107422 88.73657227 C-60.52752938 72.70256026 -56.92197734 57.33230908 -45.75 45.375 C-38.36435534 38.19583573 -30.41787698 36.63603917 -20.3984375 36.71484375 C-12.91254906 37.34297002 -7.72327819 40.34421497 -2 45 C-1.98969254 44.45098526 -1.97938507 43.90197052 -1.96876526 43.33631897 C-1.86092053 37.64278719 -1.74630551 31.94942079 -1.62768555 26.25610352 C-1.58426577 24.12885993 -1.54259607 22.0015799 -1.50268555 19.87426758 C-1.44515293 16.82361849 -1.38141033 13.77315411 -1.31640625 10.72265625 C-1.29133751 9.28672874 -1.29133751 9.28672874 -1.26576233 7.8217926 C-1.24581711 6.94095505 -1.22587189 6.06011749 -1.20532227 5.15258789 C-1.18977798 4.37315323 -1.1742337 3.59371857 -1.15821838 2.79066467 C-1 1 -1 1 0 0 Z " fill="#122760" transform="translate(268,109)"/>
<path d="M0 0 C0.96172119 -0.02215576 1.92344238 -0.04431152 2.91430664 -0.06713867 C10.9287084 -0.04308791 17.80433895 1.69198266 24.1875 6.6875 C28.82461532 12.68847277 31.40060836 18.70333445 31.48608398 26.31030273 C31.49957382 27.274879 31.51306366 28.23945526 31.52696228 29.23326111 C31.54261986 30.78648827 31.54261986 30.78648827 31.55859375 32.37109375 C31.59152493 34.56836347 31.6247367 36.76562899 31.65820312 38.96289062 C31.7056499 42.42355541 31.75010424 45.88420231 31.78930664 49.3449707 C31.82902982 52.6871883 31.88056512 56.02906449 31.93359375 59.37109375 C31.9420079 60.40455429 31.95042206 61.43801483 31.95909119 62.50279236 C31.97573318 63.47052078 31.99237518 64.43824921 32.00952148 65.43530273 C32.02498268 66.70627052 32.02498268 66.70627052 32.04075623 68.00291443 C32.34773663 70.75318925 33.18426709 72.92201177 34.3125 75.4375 C37.6125 75.7675 40.9125 76.0975 44.3125 76.4375 C44.8075 82.8725 44.8075 82.8725 45.3125 89.4375 C38.83319344 92.26483377 33.10323719 93.88506088 26.140625 91.78125 C20.8230749 89.46231838 18.32067856 86.32579016 15.3125 81.4375 C14.69503906 81.90800781 14.07757813 82.37851563 13.44140625 82.86328125 C2.81841339 90.67287874 -5.42952785 92.46178294 -18.6875 91.4375 C-25.87410759 90.27634506 -30.7353217 86.66282003 -35.6875 81.4375 C-37.98505922 77.99116118 -37.92393976 76.72681609 -37.8828125 72.67578125 C-37.87636719 71.55751953 -37.86992187 70.43925781 -37.86328125 69.28710938 C-37.84652344 68.11986328 -37.82976562 66.95261719 -37.8125 65.75 C-37.80347656 64.57115234 -37.79445313 63.39230469 -37.78515625 62.17773438 C-37.76156423 59.26411974 -37.7286454 56.35091108 -37.6875 53.4375 C-37.0275 53.4375 -36.3675 53.4375 -35.6875 53.4375 C-35.5225 52.73625 -35.3575 52.035 -35.1875 51.3125 C-31.36700797 43.98989027 -22.18637862 39.97964138 -14.65625 37.3984375 C-9.61889302 36.00622679 -4.44112892 35.72454797 0.75 35.3125 C1.76771484 35.22613281 2.78542969 35.13976562 3.83398438 35.05078125 C6.32637442 34.84015674 8.8191121 34.63589929 11.3125 34.4375 C11.33463429 33.02090512 11.35028524 31.60420818 11.36328125 30.1875 C11.37270752 29.39859375 11.38213379 28.6096875 11.3918457 27.796875 C11.27500627 24.32260953 10.59363433 21.67404989 9.3125 18.4375 C-1.04076543 14.98641152 -15.66327098 16.7461454 -25.6875 20.4375 C-26.38875 20.80101562 -27.09 21.16453125 -27.8125 21.5390625 C-29.6875 22.4375 -29.6875 22.4375 -32.6875 22.4375 C-32.6875 17.1575 -32.6875 11.8775 -32.6875 6.4375 C-21.82211863 1.96351943 -11.70406758 0.14507241 0 0 Z " fill="#11255E" transform="translate(345.6875,145.5625)"/>
<path d="M0 0 C0 0.66 0 1.32 0 2 C1.0828125 2.2784375 1.0828125 2.2784375 2.1875 2.5625 C8.47243134 5.77479824 10.98474224 12.45989922 13.15234375 18.83984375 C15.54913226 27.77533639 16.88511265 37.73719318 16 47 C15 48 15 48 12.71580505 48.12025452 C11.70542679 48.11803391 10.69504852 48.11581329 9.65405273 48.11352539 C8.5129454 48.11344986 7.37183807 48.11337433 6.19615173 48.11329651 C4.9545076 48.10813522 3.71286346 48.10297394 2.43359375 48.09765625 C0.53795433 48.09553383 0.53795433 48.09553383 -1.39598083 48.09336853 C-4.76124889 48.08870582 -8.1264499 48.0797148 -11.49169922 48.06866455 C-14.9234967 48.05844846 -18.35530109 48.05387049 -21.78710938 48.04882812 C-28.52475824 48.0377738 -35.26237525 48.0210171 -42 48 C-41.69596238 49.44439632 -41.38728938 50.88781745 -41.07666016 52.33081055 C-40.9052652 53.13471725 -40.73387024 53.93862396 -40.55728149 54.76689148 C-39.28000412 59.88512888 -36.30183507 64.39314206 -31.96875 67.41796875 C-17.29641932 75.00049785 0.80288915 70.81204124 16 67 C16 71.95 16 76.9 16 82 C-2.97296369 88.12031087 -20.88651874 90.97272921 -40 84 C-49.21398429 79.17817403 -56.33855318 71.78013128 -60 62 C-64.55611862 47.27571966 -64.72664739 31.13174506 -57.5390625 17.16015625 C-56.12370982 15.00120457 -54.62945212 12.99998507 -53 11 C-52.401875 10.113125 -51.80375 9.22625 -51.1875 8.3125 C-38.23626016 -5.37881068 -16.6966583 -8.34832915 0 0 Z " fill="#152961" transform="translate(756,150)"/>
<path d="M0 0 C0.69771011 0.00359528 1.39542023 0.00719055 2.11427307 0.01089478 C3.2117688 0.01067574 3.2117688 0.01067574 4.33143616 0.01045227 C6.76094989 0.0111515 9.19038789 0.01894432 11.61988831 0.02676392 C13.29997719 0.02862806 14.98006662 0.03005198 16.66015625 0.03105164 C21.09071849 0.03487709 25.52124815 0.04470761 29.95179749 0.05575562 C34.46941182 0.06596914 38.98703139 0.07054913 43.50465393 0.07559204 C52.37511098 0.08632986 61.24554381 0.10340661 70.11598206 0.12442017 C70.24012173 2.5023468 70.33000703 4.87369999 70.40113831 7.25332642 C70.43936707 7.91900635 70.47759583 8.58468628 70.51698303 9.27053833 C70.64230705 14.87578384 69.18377685 17.10058811 65.55348206 21.06192017 C64.57954455 22.0558567 63.5773967 23.02403469 62.53395081 23.94473267 C58.5775517 27.56221151 54.99562795 31.49607104 51.36598206 35.43692017 C47.22430221 39.88232683 43.02954921 44.25483927 38.69752502 48.51553345 C36.44770919 50.804247 34.37959914 53.2350191 32.28785706 55.66738892 C28.76806361 59.64931352 25.11674462 63.51007694 21.47096252 67.37661743 C20.92327209 67.96112671 20.37558167 68.54563599 19.81129456 69.14785767 C19.31645569 69.6729895 18.82161682 70.19812134 18.31178284 70.73916626 C17.00885653 72.13372835 17.00885653 72.13372835 16.11598206 74.12442017 C34.59598206 74.12442017 53.07598206 74.12442017 72.11598206 74.12442017 C72.11598206 78.74442017 72.11598206 83.36442017 72.11598206 88.12442017 C70.42198825 89.81841397 68.31305768 89.25023596 66.0526886 89.25994873 C65.32849731 89.2579245 64.60430603 89.25590027 63.85816956 89.2538147 C63.09885132 89.25556702 62.33953308 89.25731934 61.5572052 89.25912476 C59.0351079 89.26354346 56.51308013 89.26060523 53.99098206 89.25723267 C52.24602749 89.2579057 50.50107302 89.25887572 48.75611877 89.26013184 C45.0941631 89.26160883 41.43223178 89.25945419 37.77027893 89.25479126 C33.06553713 89.24909397 28.36085237 89.25237296 23.65611267 89.25836372 C20.05144314 89.26196929 16.44678724 89.26083077 12.84211731 89.25823593 C11.10688775 89.25756665 9.37165697 89.25839513 7.63642883 89.26071548 C5.21551718 89.26324193 2.79469919 89.25940155 0.37379456 89.2538147 C-0.35039673 89.25583893 -1.07458801 89.25786316 -1.82072449 89.25994873 C-6.76975528 89.23868283 -6.76975528 89.23868283 -7.88401794 88.12442017 C-8.20295615 82.06459417 -8.35435308 75.49400857 -4.61375427 70.39175415 C-3.03565659 68.72206253 -1.398998 67.1668909 0.30348206 65.62442017 C1.49408139 64.49349675 2.68289979 63.36069533 3.86988831 62.22598267 C4.43723694 61.69005493 5.00458557 61.1541272 5.58912659 60.60195923 C7.42418826 58.82616881 9.09718135 56.95268946 10.74098206 54.99942017 C13.97374207 51.18765836 17.50626397 47.70561892 21.06080627 44.1991272 C24.37696471 40.91044125 27.47612265 37.50254119 30.50660706 33.95254517 C32.64148461 31.52749008 34.93696622 29.28958685 37.24391174 27.0296936 C39.1888462 25.0502637 41.01611111 23.00141431 42.83473206 20.90567017 C43.45283752 20.1947522 44.07094299 19.48383423 44.70777893 18.75137329 C45.17248596 18.21447876 45.63719299 17.67758423 46.11598206 17.12442017 C45.47927078 17.1141127 44.84255951 17.10380524 44.18655396 17.09318542 C37.58471408 16.98535686 30.98301727 16.87074056 24.38136292 16.75210571 C21.91459637 16.70868073 19.44779828 16.66701145 16.98097229 16.62710571 C13.44384739 16.56958571 9.9068824 16.50583942 6.36988831 16.44082642 C4.70428612 16.41575768 4.70428612 16.41575768 3.0050354 16.3901825 C1.47356117 16.36026466 1.47356117 16.36026466 -0.08885193 16.32974243 C-0.99264084 16.31419815 -1.89642975 16.29865387 -2.8276062 16.28263855 C-4.88401794 16.12442017 -4.88401794 16.12442017 -5.88401794 15.12442017 C-5.98311097 12.79281962 -6.01372299 10.45812075 -6.00901794 8.12442017 C-6.01159607 6.84567017 -6.01417419 5.56692017 -6.01683044 4.24942017 C-5.80768645 -0.67161498 -4.5005555 0.00978241 0 0 Z " fill="#152A62" transform="translate(409.88401794433594,146.87557983398438)"/>
<path d="M0 0 C0.72030396 -0.00175232 1.44060791 -0.00350464 2.18273926 -0.00531006 C4.57497534 -0.00972835 6.9671381 -0.00679068 9.359375 -0.00341797 C11.01464858 -0.00409101 12.66992207 -0.00506105 14.32519531 -0.00631714 C17.79883767 -0.00779408 21.27245437 -0.00563968 24.74609375 -0.00097656 C29.20869998 0.00472073 33.67124608 0.0014417 38.1338501 -0.00454903 C41.5532273 -0.00815474 44.97259015 -0.00701601 48.39196777 -0.00442123 C50.03788256 -0.00375199 51.68379863 -0.00458029 53.32971191 -0.00690079 C55.62609331 -0.00942749 57.92237599 -0.0055865 60.21875 0 C61.52811523 0.00079559 62.83748047 0.00159119 64.18652344 0.00241089 C67.109375 0.12939453 67.109375 0.12939453 68.109375 1.12939453 C68.18209241 3.48253008 68.19308368 5.83773122 68.171875 8.19189453 C68.16285156 9.48224609 68.15382813 10.77259766 68.14453125 12.10205078 C68.13292969 13.10107422 68.12132812 14.10009766 68.109375 15.12939453 C67.449375 15.12939453 66.789375 15.12939453 66.109375 15.12939453 C65.92761719 15.80357422 65.74585938 16.47775391 65.55859375 17.17236328 C63.47665256 21.42042118 60.31345267 24.19692685 56.921875 27.44189453 C55.55155449 28.77986565 54.18303921 30.11968834 52.81640625 31.46142578 C51.8430835 32.415896 51.8430835 32.415896 50.85009766 33.38964844 C48.28173067 35.95657455 45.91985277 38.6700535 43.578125 41.44189453 C41.46050657 43.87490294 39.15152785 46.09687995 36.8515625 48.35595703 C35.06221673 50.17739868 33.39648968 52.06653733 31.734375 54.00439453 C28.33236483 57.96309728 24.66953813 61.60815108 20.9296875 65.24658203 C19.04553602 67.00692792 19.04553602 67.00692792 18.109375 69.12939453 C17.449375 69.12939453 16.789375 69.12939453 16.109375 69.12939453 C15.449375 70.44939453 14.789375 71.76939453 14.109375 73.12939453 C32.259375 73.45939453 50.409375 73.78939453 69.109375 74.12939453 C69.109375 79.07939453 69.109375 84.02939453 69.109375 89.12939453 C58.95670953 89.15194599 48.80406057 89.17030987 38.65137577 89.1812067 C33.93757767 89.18643542 29.22379753 89.19353287 24.51000977 89.20483398 C19.96482096 89.21566326 15.41964948 89.22167145 10.87444878 89.22427177 C9.13642542 89.22612595 7.39840306 89.22974642 5.66038704 89.23512459 C3.23458905 89.24233556 0.80886354 89.24338545 -1.61694336 89.24291992 C-2.34270569 89.2465152 -3.06846802 89.25011047 -3.81622314 89.2538147 C-8.77657284 89.24344669 -8.77657284 89.24344669 -9.890625 88.12939453 C-10.56132654 82.93907923 -11.17056772 77.48636223 -8.609375 72.77001953 C-6.81207025 70.72762777 -4.92811941 68.93149659 -2.890625 67.12939453 C-1.55076543 65.80261953 -0.21746389 64.46919083 1.109375 63.12939453 C1.7075 62.55189453 2.305625 61.97439453 2.921875 61.37939453 C4.81012602 59.43719348 6.5883854 57.4551798 8.36328125 55.41064453 C12.15281086 51.04859606 16.07980485 46.82982175 20.046875 42.62939453 C20.71138672 41.92169922 21.37589844 41.21400391 22.06054688 40.48486328 C25.34998748 36.99441903 28.67550206 33.56773849 32.11328125 30.22314453 C36.52677401 25.85402224 40.3234236 21.04307613 44.109375 16.12939453 C43.47266373 16.13161514 42.83595245 16.13383575 42.1799469 16.13612366 C35.57822224 16.15817493 28.97650796 16.17330047 22.37475586 16.18432617 C19.90795467 16.18936809 17.44115648 16.19620144 14.97436523 16.20483398 C11.43732971 16.21690578 7.90033355 16.22262409 4.36328125 16.22705078 C3.25287979 16.23221207 2.14247833 16.23737335 0.99842834 16.24269104 C-0.53304588 16.24280434 -0.53304588 16.24280434 -2.09545898 16.24291992 C-3.45114235 16.24625084 -3.45114235 16.24625084 -4.83421326 16.24964905 C-6.890625 16.12939453 -6.890625 16.12939453 -7.890625 15.12939453 C-7.98971802 12.79779398 -8.02033004 10.46309512 -8.015625 8.12939453 C-8.01820313 6.85064453 -8.02078125 5.57189453 -8.0234375 4.25439453 C-7.78400606 -1.37928641 -5.03501645 0.00305936 0 0 Z " fill="#162A62" transform="translate(508.890625,146.87060546875)"/>
<path d="M0 0 C17.16 0 34.32 0 52 0 C52.02254699 16.41108992 52.04097915 32.82216669 52.05181217 49.23326778 C52.05697514 56.85270173 52.06401784 64.47212539 52.07543945 72.09155273 C52.08538628 78.73028827 52.09185342 85.36901637 52.09408849 92.00775915 C52.09539561 95.52504336 52.09848147 99.04230626 52.10573006 102.55958366 C52.11374389 106.47974938 52.11399114 110.39989399 52.11352539 114.32006836 C52.11712067 115.49466614 52.12071594 116.66926392 52.12442017 117.87945557 C52.1230455 118.94101364 52.12167084 120.00257172 52.12025452 121.09629822 C52.12117631 122.02454375 52.1220981 122.95278929 52.12304783 123.90916348 C52 126 52 126 51 127 C45.06 127 39.12 127 33 127 C33 90.04 33 53.08 33 15 C22.11 15 11.22 15 0 15 C0 10.05 0 5.1 0 0 Z " fill="#142861" transform="translate(599,109)"/>
<path d="M0 0 C5.99367514 3.70885217 5.99367514 3.70885217 8.203125 6.36328125 C8.86609084 9.43971257 9.13902177 11.73194677 9.140625 14.8125 C9.16346558 16.03148735 9.16346558 16.03148735 9.18676758 17.27510071 C9.20832654 18.99211387 9.21409275 20.70938883 9.20507812 22.42651367 C9.2031411 25.02914678 9.28613893 27.6197891 9.375 30.22070312 C9.55730034 43.06329866 9.55730034 43.06329866 6.02929688 47.72460938 C0.03826085 53.81206295 -5.22199437 57.37785404 -13.859375 57.73828125 C-18.18939289 57.58058712 -21.19770911 56.93411403 -24.796875 54.36328125 C-32.67230022 45.39404697 -31.38599284 31.81490536 -30.94482422 20.60351562 C-30.33754572 11.40815677 -26.37921003 4.43646794 -19.546875 -1.63671875 C-12.71493647 -4.12106003 -6.45363416 -2.99281126 0 0 Z " fill="#FCFCFC" transform="translate(258.796875,163.63671875)"/>
<path d="M0 0 C1.25425781 0.00902344 2.50851562 0.01804688 3.80078125 0.02734375 C4.75339844 0.03894531 5.70601563 0.05054688 6.6875 0.0625 C8.32228927 17.9948808 8.32228927 17.9948808 4.63671875 22.65625 C2.00051676 24.18719989 -0.39753612 25.18588312 -3.3125 26.0625 C-4.16585938 26.42472656 -5.01921875 26.78695312 -5.8984375 27.16015625 C-10.66743025 28.94274092 -14.87717249 28.55934414 -19.5625 26.9375 C-22.95616345 24.62363855 -24.50014821 22.75690942 -26.3125 19.0625 C-26.95737182 14.99980756 -27.20830047 12.70371108 -25.2421875 9.1015625 C-19.01172891 1.03260793 -9.65287755 -0.09021381 0 0 Z " fill="#F9FAFB" transform="translate(351.3125,193.9375)"/>
<path d="M0 0 C4.43969533 2.89939287 5.79939499 5.13089528 8.0625 10 C8.0625 13.3 8.0625 16.6 8.0625 20 C-4.1475 20 -16.3575 20 -28.9375 20 C-27.8837963 11.57037037 -26.61648218 7.04779187 -20.4375 1.5625 C-14.45492095 -2.61971414 -6.76559348 -2.23057776 0 0 Z " fill="#FBFBFC" transform="translate(742.9375,162)"/>
<path d="M0 0 C3.83625 -0.1546875 3.83625 -0.1546875 7.75 -0.3125 C8.54889648 -0.35802002 9.34779297 -0.40354004 10.17089844 -0.45043945 C14.0173868 -0.52552833 15.62960418 -0.35211195 18.453125 2.33203125 C21.02569031 6.76905678 21.71797657 10.93587193 21 16 C19.25364203 19.14344435 17.53137274 21.46862726 15 24 C12.41048555 24.14547834 9.95814609 24.18649052 7.375 24.125 C3.724375 24.063125 3.724375 24.063125 0 24 C0 16.08 0 8.16 0 0 Z " fill="#F09C51" transform="translate(22,289)"/>
<path d="M0 0 C2.78687589 2.30912573 3.91708102 4.1289243 4.546875 7.71875 C4.71422786 12.87879649 4.51600736 16.94786141 1.078125 21.046875 C-1.48775952 23.61275952 -2.66654369 23.4023004 -6.234375 23.484375 C-10.4090948 23.41871755 -11.58464956 23.29642183 -15.046875 20.734375 C-18.07263161 16.39745719 -18.62268791 12.22720823 -17.921875 7.046875 C-16.86825081 4.31892723 -15.65195106 2.46898148 -13.921875 0.046875 C-9.30549752 -1.49191749 -4.50777479 -2.23556311 0 0 Z " fill="#F09D54" transform="translate(319.921875,289.953125)"/>
<path d="M0 0 C1.65 0 3.3 0 5 0 C6.6953125 1.79296875 6.6953125 1.79296875 8.125 4.1875 C8.84042969 5.35345703 8.84042969 5.35345703 9.5703125 6.54296875 C10.04210937 7.35378906 10.51390625 8.16460937 11 9 C11.99 10.65 12.98 12.3 14 14 C14.33 9.38 14.66 4.76 15 0 C16.32 0 17.64 0 19 0 C19.90483637 5.36489595 20.12303662 10.50317457 20.0625 15.9375 C20.05798828 16.71673828 20.05347656 17.49597656 20.04882812 18.29882812 C20.03716908 20.19925268 20.01923877 22.09963706 20 24 C17.203125 24.26953125 17.203125 24.26953125 14 24 C12.171875 22.13671875 12.171875 22.13671875 10.75 19.6875 C10.27046875 18.88699219 9.7909375 18.08648437 9.296875 17.26171875 C8.86890625 16.51535156 8.4409375 15.76898438 8 15 C7.34 14.01 6.68 13.02 6 12 C5.67 15.96 5.34 19.92 5 24 C3.35 23.67 1.7 23.34 0 23 C0 15.41 0 7.82 0 0 Z " fill="#F09D54" transform="translate(327,289)"/>
<path d="M0 0 C1.65 0 3.3 0 5 0 C6.73046875 1.79296875 6.73046875 1.79296875 8.1875 4.1875 C8.67605469 4.96480469 9.16460937 5.74210937 9.66796875 6.54296875 C10.98712241 8.97624632 12.02940513 11.4102137 13 14 C13.66 14 14.32 14 15 14 C15 9.38 15 4.76 15 0 C16.32 0 17.64 0 19 0 C19 8.25 19 16.5 19 25 C13.58180615 23.64545154 11.54138756 21.08653632 8.75 16.4375 C7 13 7 13 7 10 C6.34 10 5.68 10 5 10 C5 14.62 5 19.24 5 24 C3.35 24 1.7 24 0 24 C0 16.08 0 8.16 0 0 Z " fill="#EF9748" transform="translate(163,289)"/>
<path d="M0 0 C1.32 0 2.64 0 4 0 C5.35233815 2.99176485 6.68026952 5.99371299 8 9 C8.68255859 10.54880859 8.68255859 10.54880859 9.37890625 12.12890625 C9.83136719 13.17949219 10.28382813 14.23007812 10.75 15.3125 C11.17796875 16.29863281 11.6059375 17.28476562 12.046875 18.30078125 C13 21 13 21 13 25 C11.35 25 9.7 25 8 25 C7.34 23.35 6.68 21.7 6 20 C-1.21512435 19.97691745 -1.21512435 19.97691745 -7.125 23.5625 C-7.74375 24.366875 -8.3625 25.17125 -9 26 C-9.97077098 17.65136955 -6.167461 9.26552239 -1.9375 2.1875 C-1.298125 1.465625 -0.65875 0.74375 0 0 Z " fill="#EF994D" transform="translate(218,288)"/>
<path d="M0 0 C0.99 0 1.98 0 3 0 C13 19.1 13 19.1 13 26 C11.02 25.67 9.04 25.34 7 25 C6.505 22.525 6.505 22.525 6 20 C4.39479996 20.06023265 2.79065673 20.14908599 1.1875 20.25 C0.29417969 20.29640625 -0.59914063 20.3428125 -1.51953125 20.390625 C-4.6566481 21.16131827 -5.20112269 22.42281187 -7 25 C-7.99 25 -8.98 25 -10 25 C-9.58160676 19.97928117 -8.4214656 16.41912965 -6.046875 11.98828125 C-5.04495976 10.08538999 -4.19487527 8.17444261 -3.375 6.1875 C-2 3 -2 3 0 0 Z " fill="#F09B50" transform="translate(101,288)"/>
<path d="M0 0 C1.87890625 0.30078125 1.87890625 0.30078125 4 1 C8.13670878 7.80555315 13 17.96399116 13 26 C11.35 26 9.7 26 8 26 C7.34 24.02 6.68 22.04 6 20 C4.39479996 20.06023265 2.79065673 20.14908599 1.1875 20.25 C0.29417969 20.29640625 -0.59914063 20.3428125 -1.51953125 20.390625 C-4.6566481 21.16131827 -5.20112269 22.42281187 -7 25 C-7.99 25 -8.98 25 -10 25 C-9.07634619 15.99437539 -4.04645289 7.94365136 0 0 Z " fill="#EF9A4F" transform="translate(54,288)"/>
<path d="M0 0 C0.80179687 0.00451172 1.60359375 0.00902344 2.4296875 0.01367188 C4.41149006 0.02546832 6.39325433 0.04340395 8.375 0.0625 C8.375 1.0525 8.375 2.0425 8.375 3.0625 C6.065 3.3925 3.755 3.7225 1.375 4.0625 C1.375 10.0025 1.375 15.9425 1.375 22.0625 C3.355 22.0625 5.335 22.0625 7.375 22.0625 C7.045 23.3825 6.715 24.7025 6.375 26.0625 C0.765 26.0625 -4.845 26.0625 -10.625 26.0625 C-10.295 24.7425 -9.965 23.4225 -9.625 22.0625 C-7.975 22.0625 -6.325 22.0625 -4.625 22.0625 C-4.625 15.7925 -4.625 9.5225 -4.625 3.0625 C-6.605 3.0625 -8.585 3.0625 -10.625 3.0625 C-10.625 2.4025 -10.625 1.7425 -10.625 1.0625 C-7.31505287 -0.59247356 -3.63377 -0.03834335 0 0 Z " fill="#F0A059" transform="translate(291.625,287.9375)"/>
<path d="M0 0 C5.61 0 11.22 0 17 0 C17 0.99 17 1.98 17 3 C15.02 3 13.04 3 11 3 C11 9.27 11 15.54 11 22 C13.31 22 15.62 22 18 22 C18 22.66 18 23.32 18 24 C11.73 24 5.46 24 -1 24 C-1 23.34 -1 22.68 -1 22 C0.98 21.67 2.96 21.34 5 21 C5 15.06 5 9.12 5 3 C3.35 3 1.7 3 0 3 C0 2.01 0 1.02 0 0 Z " fill="#EF9646" transform="translate(141,289)"/>
<path d="M0 0 C1.75570312 0.04060547 1.75570312 0.04060547 3.546875 0.08203125 C4.43890625 0.11683594 5.3309375 0.15164063 6.25 0.1875 C6.25 1.5075 6.25 2.8275 6.25 4.1875 C5.49074219 4.12949219 4.73148438 4.07148438 3.94921875 4.01171875 C0.98645828 3.87722249 -1.80288989 3.84410516 -4.75 4.1875 C-7.46906214 6.82887465 -7.66144982 8.47909856 -8.125 12.1875 C-7.68562482 15.70250143 -6.94153487 17.4078803 -4.75 20.1875 C-1.8022993 21.00678716 -1.8022993 21.00678716 1.4375 21 C3.06751953 21.07154297 3.06751953 21.07154297 4.73046875 21.14453125 C5.56191406 21.15871094 6.39335937 21.17289062 7.25 21.1875 C7.25 22.1775 7.25 23.1675 7.25 24.1875 C5.18816367 24.26900744 3.12538651 24.3269194 1.0625 24.375 C-0.66033203 24.42720703 -0.66033203 24.42720703 -2.41796875 24.48046875 C-6.83628294 24.0919886 -9.31664787 22.47257432 -12.5625 19.5625 C-14.424202 15.83909601 -14.28999159 12.26662568 -13.75 8.1875 C-10.84270658 1.50072514 -7.10121236 -0.21303637 0 0 Z " fill="#EF9648" transform="translate(246.75,288.8125)"/>
<path d="M0 0 C2.75 0.375 2.75 0.375 5.5625 2.3125 C8.51078025 6.44009235 8.53234765 9.45865626 7.75 14.375 C6.75 17.4375 6.75 17.4375 4.75 19.375 C2.06286504 19.63636165 -0.54389457 19.45956579 -3.25 19.375 C-3.27683987 16.39577407 -3.29676037 13.41678705 -3.3125 10.4375 C-3.32087891 9.58736328 -3.32925781 8.73722656 -3.33789062 7.86132812 C-3.34111328 7.05244141 -3.34433594 6.24355469 -3.34765625 5.41015625 C-3.35289307 4.6612915 -3.35812988 3.91242676 -3.36352539 3.14086914 C-3.19035128 0.44717383 -2.65381594 0.44230266 0 0 Z " fill="#FCF5EF" transform="translate(30.25,290.625)"/>
<path d="M0 0 C7.59 0 15.18 0 23 0 C22.67 0.66 22.34 1.32 22 2 C19.69 2.33 17.38 2.66 15 3 C14.67 10.26 14.34 17.52 14 25 C12.35 25 10.7 25 9 25 C8 24 8 24 7.88647461 21.86694336 C7.89171143 20.95050049 7.89694824 20.03405762 7.90234375 19.08984375 C7.90556641 18.10048828 7.90878906 17.11113281 7.91210938 16.09179688 C7.92048828 15.05087891 7.92886719 14.00996094 7.9375 12.9375 C7.94201172 11.89271484 7.94652344 10.84792969 7.95117188 9.77148438 C7.96300087 7.1809334 7.97948311 4.59049441 8 2 C5.36 2 2.72 2 0 2 C0 1.34 0 0.68 0 0 Z " fill="#F09C52" transform="translate(68,289)"/>
<path d="M0 0 C1.6328125 1.1484375 1.6328125 1.1484375 3 3 C3.3984375 5.8125 3.3984375 5.8125 3.375 9 C3.38273437 10.051875 3.39046875 11.10375 3.3984375 12.1875 C3 15 3 15 1.66796875 16.8515625 C-0.92267026 18.63528116 -2.9530128 18.38897709 -6 18 C-8.29783606 14.55324591 -8.29754883 13.06671888 -8.3125 9 C-8.32925781 7.948125 -8.34601563 6.89625 -8.36328125 5.8125 C-8 3 -8 3 -6.63671875 1.1484375 C-4.29384902 -0.49548541 -2.795754 -0.4193631 0 0 Z " fill="#FDFCFB" transform="translate(316,292)"/>
<path d="M0 0 C7.26 0 14.52 0 22 0 C22 0.99 22 1.98 22 3 C19.03 2.67 16.06 2.34 13 2 C13 9.26 13 16.52 13 24 C11.35 24 9.7 24 8 24 C8 17.07 8 10.14 8 3 C5.36 3 2.72 3 0 3 C0 2.01 0 1.02 0 0 Z " fill="#EF9646" transform="translate(256,289)"/>
<path d="M0 0 C1.8133922 3.20010388 2.52213974 6.13283843 3.125 9.75 C3.29257813 10.73484375 3.46015625 11.7196875 3.6328125 12.734375 C3.81457031 13.85585938 3.81457031 13.85585938 4 15 C1.36 15 -1.28 15 -4 15 C-3.43179252 9.54520815 -2.05362055 5.08940744 0 0 Z " fill="#FCF5EE" transform="translate(102,290)"/>
<path d="M0 0 C0.66 0 1.32 0 2 0 C2.99 3.63 3.98 7.26 5 11 C2.36 11 -0.28 11 -3 11 C-2.53199289 6.94393835 -2.12046792 3.53411321 0 0 Z " fill="#FCF4EC" transform="translate(218,294)"/>
<path d="M0 0 C0.99 0.33 1.98 0.66 3 1 C3.66 4.3 4.32 7.6 5 11 C2.36 11 -0.28 11 -3 11 C-2.69078116 9.54096742 -2.37751201 8.08279278 -2.0625 6.625 C-1.88847656 5.81289063 -1.71445312 5.00078125 -1.53515625 4.1640625 C-1 2 -1 2 0 0 Z " fill="#FDF7F1" transform="translate(54,294)"/>
<path d="M0 0 C5.61 0 11.22 0 17 0 C17 0.99 17 1.98 17 3 C11.72 3 6.44 3 1 3 C0.67 2.01 0.34 1.02 0 0 Z " fill="#F1A765" transform="translate(187,298)"/>
<path d="M0 0 C5.61 0 11.22 0 17 0 C17 0.99 17 1.98 17 3 C11.72 3 6.44 3 1 3 C0.67 2.01 0.34 1.02 0 0 Z " fill="#F09D54" transform="translate(117,298)"/>
</svg>
